<svg width="116" height="89" viewBox="0 0 116 89" fill="none" xmlns="http://www.w3.org/2000/svg">
<path d="M110.526 68.879C106.12 62.026 103.324 54.3919 102.319 46.4733C101.314 38.5547 102.122 30.5291 104.692 22.9187C104.883 22.3999 104.883 21.8373 104.692 21.3186C102.957 16.5159 99.9265 12.2016 95.8877 8.78299C89.0614 3.14495 80.1878 0.0950873 71.0375 0.241996C61.3265 0.241996 53.7987 2.63289 48.4541 7.41467C48.0821 7.76709 47.6052 8.00921 47.0841 8.11028C46.563 8.21135 46.0211 8.16679 45.5275 7.98224C45.0338 7.7977 44.6106 7.48154 44.3118 7.07394C44.0129 6.66634 43.8518 6.18573 43.8491 5.69323V5.63804C43.93 4.75334 43.7879 3.86334 43.4339 3.03806C43.0799 2.21278 42.5237 1.47473 41.809 0.882004C40.449 -0.14424 38.4686 -0.111127 35.844 0.959257L5.35097 14.9735C1.97478 16.6508 0.304565 18.284 0.304565 19.8289V20.5462C0.304565 21.9807 1.19934 23.4484 3.0127 24.9601C4.54769 26.2402 6.09061 27.6453 7.64151 29.1755C9.93368 31.4367 11.2128 34.4181 11.2205 37.5178V66.9148C11.2205 70.1369 9.73325 73.3996 6.7587 76.7027C3.78415 80.0058 2.2929 82.4298 2.28495 83.9747V84.6919C2.28495 87.2079 3.90745 88.4659 7.15241 88.4659H53.9419C57.1749 88.4659 58.8093 87.2079 58.8093 84.6919V83.9747C58.8093 82.4188 57.3061 79.9911 54.3355 76.7027C51.365 73.4143 49.8618 70.1369 49.8618 66.9148V28.8223C49.8618 18.5231 53.0431 13.3735 59.4058 13.3735C61.0974 13.2873 62.7731 13.7151 64.1774 14.5917C65.5817 15.4683 66.6376 16.7456 67.1841 18.2288C68.5919 21.451 69.5582 27.3142 70.0832 35.8185L72.0277 66.9037C72.19 70.4208 71.0261 73.8807 68.7351 76.6917C66.2616 79.98 65.0288 82.4041 65.0368 83.9637V84.681C65.0368 87.1969 66.6553 88.4549 69.8923 88.4549H104.096C104.538 88.4597 104.974 88.3611 105.364 88.1682C105.754 87.9752 106.085 87.6943 106.326 87.3514C108.222 84.5883 110.84 82.3113 113.938 80.7305C114.247 80.5713 114.518 80.3564 114.736 80.0987C114.953 79.841 115.113 79.5455 115.205 79.2298C115.298 78.9141 115.321 78.5844 115.273 78.2603C115.225 77.9362 115.108 77.6242 114.928 77.3427L114.367 76.471" fill="#B15153"/>
</svg>
