<svg width="16" height="40" viewBox="0 0 16 40" fill="none" xmlns="http://www.w3.org/2000/svg">
<path d="M1.42125 39.9618C0.490707 39.9618 0.0254211 39.6197 0.0254211 38.9355V38.7259C0.200678 37.9656 0.615863 37.2705 1.21842 36.7285C1.94201 35.982 2.36358 35.0267 2.41142 34.0251V23.7736C2.37512 22.7631 1.95238 21.7973 1.21842 21.048C0.652747 20.5545 0.240734 19.9294 0.0254211 19.2383V19.0286C0.0254211 18.5982 0.466825 18.1789 1.36158 17.7817L10.1779 13.787C10.467 13.6318 10.7916 13.5419 11.1254 13.5246C11.4591 13.5074 11.7926 13.5632 12.0986 13.6877C12.3297 13.8116 12.5184 13.9933 12.6429 14.2119C12.7675 14.4305 12.8227 14.6773 12.8024 14.9237V34.0251C12.8537 35.0475 13.3228 36.0137 14.1147 36.7285C14.7635 37.2539 15.2217 37.9513 15.4271 38.7259V38.9355C15.4271 39.6197 14.9379 39.9618 13.9716 39.9618H1.42125ZM7.66061 10.8738C5.895 10.9441 4.16559 10.3964 2.81704 9.33995C2.23027 8.85351 1.76095 8.25819 1.43963 7.59271C1.11832 6.92724 0.952246 6.20656 0.952246 5.47774C0.952246 4.74891 1.11832 4.0283 1.43963 3.36283C1.76095 2.69735 2.23027 2.10196 2.81704 1.61553C4.16383 0.555073 5.89342 0.00344796 7.66061 0.0706816C9.40501 0.010435 11.1096 0.562227 12.4326 1.61553C13.0227 2.10006 13.4951 2.69481 13.8186 3.36054C14.1421 4.02627 14.3094 4.74785 14.3094 5.47774C14.3094 6.20762 14.1421 6.92927 13.8186 7.595C13.4951 8.26073 13.0227 8.85541 12.4326 9.33995C11.1084 10.3902 9.4036 10.9382 7.66061 10.8738Z" fill="#CC8343"/>
</svg>
