<svg width="35" height="41" viewBox="0 0 35 41" fill="none" xmlns="http://www.w3.org/2000/svg">
<path d="M32.5479 35.0251C32.6472 35.9904 33.0264 36.913 33.6455 37.6955C34.1748 38.2744 34.5215 38.9768 34.6476 39.7259V39.9356C34.6476 40.6198 34.1824 40.9618 33.2399 40.9618H21.6558C20.7253 40.9618 20.26 40.6198 20.26 39.9356V39.7259C20.413 38.9816 20.7844 38.2906 21.3337 37.7286C22.0012 36.9632 22.3636 36.0086 22.3597 35.0251L21.7751 24.9944C21.768 23.1653 21.3622 21.3563 20.5821 19.6756C20.315 19.1787 19.8979 18.7641 19.3812 18.4821C18.8646 18.2001 18.2705 18.0626 17.6712 18.0865C17.1054 18.0624 16.5431 18.1798 16.0434 18.4265C15.5437 18.6731 15.1252 19.0398 14.8319 19.488C14.1346 20.6573 13.804 21.9834 13.8774 23.3171V35.0803C13.9257 36.0938 14.396 37.0507 15.1898 37.7507C15.8386 38.2669 16.2973 38.9573 16.5021 39.7259V39.9356C16.5021 40.6198 16.0368 40.9618 15.0943 40.9618H2.43662C1.54187 40.9618 1.10047 40.6198 1.10047 39.9356V39.7259C1.29177 38.9601 1.73829 38.2692 2.37698 37.7507C3.15594 37.0432 3.61624 36.0891 3.66537 35.0803V10.0421C3.64729 9.54695 3.50931 9.06182 3.26154 8.62255C3.01377 8.18329 2.6625 7.8011 2.23376 7.50411C1.27936 6.75374 0.802216 6.1578 0.802216 5.72744V5.56196C0.802216 4.9109 1.25556 4.45848 2.15031 4.05019L11.3602 0.276207C11.5983 0.13712 11.8698 0.0543306 12.1506 0.035088C12.4315 0.0158455 12.7131 0.0607664 12.9708 0.165885C13.1863 0.301943 13.3571 0.490312 13.4644 0.710288C13.5718 0.930264 13.6115 1.17334 13.5792 1.41283V17.0603C14.513 16.1964 15.633 15.524 16.8662 15.0868C18.0994 14.6495 19.4183 14.4572 20.7372 14.5223C23.4861 14.4763 26.1528 15.3904 28.2054 17.0824C30.3051 18.7891 31.4981 21.5331 31.7844 25.3144L32.5479 35.0251Z" fill="#CC8343"/>
</svg>
