<svg width="46" height="28" viewBox="0 0 46 28" fill="none" xmlns="http://www.w3.org/2000/svg">
<path d="M39.5769 0.52229C40.4776 0.486791 41.3734 0.661173 42.1822 1.02945C42.991 1.39772 43.6868 1.94805 44.2057 2.62992C45.4504 4.48448 46.0346 6.65358 45.8759 8.83152C45.8759 14.5476 44.492 19.0903 41.7243 22.4597C40.5154 24.0469 38.9049 25.3363 37.0333 26.2153C35.1617 27.0944 33.086 27.5363 30.9873 27.5026C29.3234 27.6081 27.662 27.2675 26.202 26.5218C24.742 25.7762 23.5454 24.657 22.7556 23.2983C21.7194 24.6789 20.3175 25.7904 18.6841 26.5265C17.0507 27.2627 15.2403 27.5987 13.4263 27.5026C12.2119 27.5078 11.0042 27.3365 9.8473 26.995C8.62775 26.6057 7.49268 26.0191 6.49498 25.2625C5.27024 24.2987 4.36115 23.0374 3.87036 21.621C3.18234 19.7461 2.85527 17.774 2.90404 15.7945V7.86045C2.8694 6.85616 2.44605 5.89682 1.71104 5.15696C1.13127 4.66512 0.717074 4.0291 0.518036 3.32513V3.11546C0.524772 2.81389 0.647436 2.5244 0.864016 2.29889C1.10341 2.05079 1.43634 1.8968 1.79455 1.86851L10.4915 0.765025C12.3645 0.555362 13.2951 1.07405 13.2951 2.33203L13.0565 19.712C12.9734 20.7684 13.2176 21.8248 13.7603 22.7575C13.9518 23.1059 14.2437 23.3985 14.6037 23.603C14.9637 23.8075 15.3779 23.9159 15.8004 23.9163C17.4706 23.9163 18.7709 22.8128 19.6776 20.6058C20.6125 18.3145 21.0778 15.8821 21.0496 13.4331V7.81633C21.0192 6.81121 20.5953 5.85047 19.8566 5.11277C19.2789 4.61936 18.8651 3.98402 18.6636 3.28101V3.07135C18.6636 2.34304 19.105 1.96785 19.9997 1.8244L27.9928 0.720909C29.8181 0.434002 30.7367 0.974679 30.7367 2.34301L30.5578 19.5023C30.4862 22.4597 31.3929 23.9163 33.3017 23.9163C35.2105 23.9163 36.8807 22.7576 38.4316 20.4403C39.8858 18.3359 40.675 15.8973 40.7102 13.4C40.7292 12.4424 40.4109 11.5052 39.8035 10.7296C39.2773 10.0238 38.6187 9.4109 37.859 8.91982C37.0834 8.42014 36.4191 7.78698 35.9024 7.05492C35.2926 6.23877 34.9755 5.26602 34.9957 4.27411C34.972 3.76727 35.0662 3.26167 35.272 2.79143C35.4778 2.32119 35.7905 1.89732 36.1887 1.54853C36.6517 1.17828 37.1897 0.896888 37.7714 0.720707C38.3531 0.544527 38.9668 0.477083 39.5769 0.52229Z" fill="#CC8343"/>
</svg>
