<svg width="48" height="71" viewBox="0 0 48 71" fill="none" xmlns="http://www.w3.org/2000/svg">
<path d="M43.6784 60.7746C41.4122 58.5425 40.0836 55.6345 39.9323 52.5756V1.131C39.9357 0.827613 39.9077 0.52461 39.8488 0.226135C36.7187 4.08114 32.2542 6.82699 27.2001 8.00575C22.1461 9.18451 16.8078 8.72491 12.0758 6.70361L4.15425 10.301C1.43421 11.5038 0.0861511 12.7618 0.0861511 14.0639V14.6598C0.0861511 15.7633 1.19563 17.6502 3.42654 20.3096C5.48392 22.5678 6.65676 25.4023 6.75502 28.3541V52.5756C6.64571 55.5719 5.47638 58.4523 3.42654 60.7746C1.19563 63.5443 0.0861511 65.5637 0.0861511 66.8769V67.4727C0.0861511 69.5914 1.43421 70.6287 4.15425 70.6287H43.3563C46.0644 70.6287 47.4125 69.5914 47.4125 67.4727V66.8769C47.4125 65.5637 46.1718 63.5443 43.6784 60.7746Z" fill="#B15153"/>
</svg>
