<svg width="36" height="28" viewBox="0 0 36 28" fill="none" xmlns="http://www.w3.org/2000/svg">
<path d="M32.9166 21.0802C33.0152 22.0475 33.399 22.9712 34.0261 23.7507C34.5485 24.3322 34.8907 25.034 35.0163 25.7811V25.9908C35.0163 26.6749 34.551 27.017 33.6085 27.017H21.941C21.0104 27.017 20.5452 26.6749 20.5452 25.9908V25.7811C20.7053 25.0323 21.0898 24.3402 21.6547 23.7838C22.3385 23.0288 22.6918 22.0642 22.6449 21.0802L22.0602 11.4247C22.0426 9.48234 21.6382 7.55959 20.8672 5.75277C20.6217 5.23961 20.2153 4.80647 19.7005 4.50939C19.1858 4.21231 18.5865 4.06497 17.9802 4.08649C17.4144 4.06236 16.8521 4.17978 16.3524 4.42641C15.8527 4.67305 15.4342 5.03978 15.1409 5.48794C14.4436 6.65725 14.113 7.98335 14.1865 9.31701V21.0802C14.234 22.0968 14.689 23.0607 15.463 23.7838C16.1035 24.3118 16.5533 25.009 16.7515 25.7811V25.9908C16.7515 26.6749 16.2862 27.017 15.3437 27.017H2.80528C1.87474 27.017 1.40941 26.6749 1.40941 25.9908V25.7811C1.60711 25.0114 2.05214 24.3151 2.68593 23.7838C3.46234 23.0612 3.92145 22.0979 3.97439 21.0802V10.4536C3.99782 9.74638 3.72415 9.05823 3.21086 8.53358C2.74334 8.04234 2.22823 7.59167 1.67191 7.18729C1.4469 7.0563 1.25836 6.87821 1.12158 6.66734C0.98479 6.45646 0.903552 6.21876 0.884491 5.97348V5.80793C0.884491 5.34446 1.34981 4.89207 2.28035 4.4617L10.4524 0.731907C10.7032 0.593958 10.9897 0.521164 11.2815 0.521164C11.5734 0.521164 11.8598 0.593958 12.1107 0.731907C12.3096 0.896634 12.4641 1.10229 12.5615 1.33228C12.6588 1.56227 12.6964 1.8102 12.6713 2.05611V4.59412C14.3018 1.89425 17.0854 0.544333 21.0223 0.544333C23.807 0.495978 26.5041 1.44482 28.5502 3.19267C30.6498 4.95089 31.8428 7.80895 32.1292 11.7668L32.9166 21.0802Z" fill="#CC8343"/>
</svg>
