<svg width="98" height="121" viewBox="0 0 98 121" fill="none" xmlns="http://www.w3.org/2000/svg">
<path d="M62.0133 97.2416L60.9635 72.9649C60.5101 66.2226 59.6154 61.4996 58.315 58.8071C57.7872 57.5663 56.8515 56.5101 55.64 55.7874C54.4286 55.0648 53.0023 54.7122 51.5626 54.7794C45.9953 54.7794 43.2116 59.3147 43.2116 68.3854V101.755C43.2116 104.602 44.5239 107.482 47.1485 110.373C49.7731 113.264 51.0855 115.416 51.0855 116.784V117.413C51.0855 119.62 49.6578 120.724 46.8026 120.724H5.56055C2.71326 120.724 1.28567 119.62 1.27772 117.413V116.784C1.27772 115.416 2.59001 113.279 5.21461 110.373C7.83921 107.482 9.15149 104.602 9.15149 101.755V32.6434C9.21192 30.5917 8.45153 28.5917 7.01605 27.0266C5.6578 25.5727 4.19926 24.2015 2.64963 22.9217C2.01304 22.4853 1.4854 21.9273 1.10253 21.2857C0.719655 20.644 0.490532 19.9337 0.430664 19.2029V18.5629C0.430664 16.5619 1.85433 14.9287 4.70162 13.6634L35.1351 1.32637C37.3063 0.487715 39.0163 0.355312 40.2649 0.929126C41.458 1.51398 42.1499 2.80503 42.1499 4.80235V49.4054C47.1764 45.3004 53.7339 43.2442 61.8225 43.2369C69.7741 43.1345 77.4979 45.6936 83.5708 50.4427C89.7903 55.2392 93.3693 63.1217 94.3078 74.0904L96.6938 101.766C96.9205 104.514 96.9921 106.831 97.3262 110.23C97.6364 112.232 97.7283 114.258 97.6005 116.277V117.093C97.6005 118.274 97.4931 119.234 97.4931 119.874C97.4931 120.105 97.3938 120.327 97.2171 120.491C97.0403 120.654 96.8006 120.746 96.5507 120.746L62.8961 104.458" fill="#B15153"/>
</svg>
