<svg width="98" height="75" viewBox="0 0 98 75" fill="none" xmlns="http://www.w3.org/2000/svg">
<path d="M0.917829 23.7242C0.917829 23.7242 -3.19797 61.2428 40.1914 72.6529C48.2323 74.7605 56.7503 74.7054 67.0101 72.4542C81.6124 69.2541 101.022 51.179 97.0737 28.1823C90.8104 -8.33218 45.3332 -5.5624 46.7291 17.7543C46.8722 21.8483 48.3754 28.9547 55.5095 30.3451C57.2513 30.6872 60.3889 30.2568 62.0233 30.9299C74.526 36.1163 73.8102 50.55 65.3756 56.0343C57.991 60.8455 38.7837 59.1131 36.4693 40.1993C34.9065 27.3878 34.5247 20.8 34.5247 20.8L0.917829 23.7242Z" fill="#B15153"/>
</svg>
