<svg width="31" height="38" viewBox="0 0 31 38" fill="none" xmlns="http://www.w3.org/2000/svg">
<path d="M28.0062 0.731899C29.7241 0.522236 30.5712 0.897422 30.5712 1.83539V23.5299C30.5712 28.0984 29.056 31.6075 26.0258 34.0573C22.8571 36.546 18.799 37.8522 14.6446 37.7208C11.4989 37.7972 8.39121 37.0719 5.66134 35.6242C4.54542 35.1116 3.60218 34.3268 2.93354 33.3543C2.26491 32.3819 1.89625 31.2589 1.86753 30.1068C1.8557 29.6361 1.94805 29.1682 2.13884 28.7317C2.32964 28.2953 2.61491 27.8995 2.97709 27.5688C3.38099 27.2172 3.85774 26.9449 4.37856 26.7686C4.89937 26.5922 5.45343 26.5153 6.00728 26.5425C7.01047 26.5132 7.98922 26.832 8.75117 27.4363C9.48448 28.0248 10.0741 28.7508 10.481 29.5661C10.8867 30.3937 11.2684 31.2323 11.674 32.0709C12.0161 32.9052 12.554 33.659 13.2488 34.2779C13.9397 34.8742 14.8451 35.2124 15.7899 35.227C18.8678 35.2932 20.4068 31.9275 20.4068 25.13C18.39 26.5152 15.9119 27.2025 13.4039 27.0722C12.0285 27.0912 10.6631 26.8527 9.38997 26.371C8.1168 25.8893 6.96209 25.1744 5.99534 24.2693C4.96321 23.3189 4.15487 22.1812 3.62106 20.9278C3.08726 19.6744 2.83957 18.3325 2.89357 16.9863V7.97078C2.85894 6.9665 2.43558 6.00709 1.70057 5.26722C1.12081 4.77539 0.706606 4.13943 0.507568 3.43546V3.22579C0.507568 2.49749 0.948973 2.1223 1.84372 1.97885L10.5407 0.875358C12.366 0.665695 13.2846 1.01881 13.2846 1.97885L13.1295 17.8911C13.1295 21.5989 14.2032 23.4086 16.458 23.4086C17.0082 23.403 17.5485 23.2723 18.0312 23.0279C18.5139 22.7835 18.9242 22.4329 19.2257 22.0071C20.0371 20.9941 20.4573 19.7583 20.4187 18.498V7.87144C20.3895 6.86611 19.9654 5.90503 19.2257 5.16788C18.647 4.67525 18.233 4.0396 18.0327 3.33612V3.12645C18.0327 2.39815 18.4741 2.02296 19.3689 1.8795L28.0062 0.731899Z" fill="#CC8343"/>
</svg>
