<svg width="38" height="39" viewBox="0 0 38 39" fill="none" xmlns="http://www.w3.org/2000/svg">
<path d="M12.577 38.9618C11.6823 38.9618 11.229 38.6197 11.229 37.9355V37.7259C11.4024 36.9713 11.8183 36.2829 12.422 35.7506C13.1829 35.0349 13.6294 34.0832 13.6747 33.0802V4.69845H10.5848C10.1324 4.70989 9.68734 4.80685 9.277 4.98334C8.86667 5.15983 8.49973 5.41211 8.19876 5.72468C7.50746 6.36975 6.9352 7.1153 6.50472 7.93166C6.10522 8.7176 5.60883 9.45817 5.02541 10.1386C4.83551 10.4208 4.57915 10.6596 4.27549 10.8373C3.97183 11.015 3.62866 11.1271 3.27166 11.1649H2.28145C1.19582 11.1649 0.706728 10.6352 0.826028 9.59794L2.01903 2.25978C2.01591 2.02435 2.06675 1.79094 2.16823 1.57502C2.2697 1.35909 2.41949 1.16552 2.60774 1.00704C2.79598 0.848559 3.01837 0.728786 3.2603 0.655599C3.50224 0.582411 3.75821 0.55749 4.01132 0.582455H33.9914C34.2434 0.562698 34.4971 0.591257 34.7366 0.666375C34.9761 0.741493 35.1963 0.861577 35.3833 1.01903C35.5703 1.17648 35.7201 1.36791 35.8234 1.58141C35.9268 1.79491 35.9813 2.02587 35.9837 2.25978L37.1767 9.6531C37.2277 9.84481 37.2284 10.045 37.1786 10.237C37.1288 10.429 37.0299 10.6072 36.8904 10.7566C36.734 10.8988 36.5469 11.0088 36.3412 11.0791C36.1356 11.1495 35.9162 11.1788 35.6974 11.1649H34.7072C34.3502 11.1271 34.0071 11.015 33.7034 10.8373C33.3998 10.6596 33.1434 10.4208 32.9535 10.1386C32.3668 9.45379 31.8589 8.71411 31.4384 7.93166C30.9904 7.11101 30.3977 6.36514 29.6847 5.72468C29.3742 5.40848 28.997 5.15437 28.5765 4.97789C28.1559 4.80141 27.7008 4.7063 27.2391 4.69845H24.2088V33.0802C24.2541 34.0832 24.7005 35.0349 25.4614 35.7506C26.0651 36.2829 26.481 36.9713 26.6544 37.7259V37.9355C26.6544 38.6197 26.1892 38.9618 25.2586 38.9618H12.577Z" fill="#CC8343"/>
</svg>
