<svg width="108" height="121" viewBox="0 0 108 121" fill="none" xmlns="http://www.w3.org/2000/svg">
<path d="M101.941 5.00755C105.329 5.34963 107.035 7.15938 107.035 10.4147V11.1099C107.035 12.0368 106.307 13.2286 104.864 14.6852C103.21 16.4014 101.754 18.2727 100.521 20.2688C99.0373 22.6837 98.2909 25.4261 98.3616 28.2029V74.0639C98.3616 89.0566 93.709 100.566 84.4036 108.592C75.0982 116.618 63.4704 120.631 49.5202 120.631C35.3235 120.631 23.6997 118.538 14.6488 114.352C5.59795 110.166 1.0725 104.649 1.0725 97.7999C1.05082 94.4717 2.39858 91.2604 4.84238 88.8175C7.34768 86.1986 10.9267 84.8891 15.5794 84.8891C19.0708 84.8124 22.499 85.7587 25.3739 87.5927C28.0751 89.3248 30.3315 91.5851 31.9831 94.2136C33.5738 96.8325 35.1446 99.4074 36.6955 101.938C38.1241 104.4 39.9686 106.635 42.1594 108.559C44.1285 110.354 46.7463 111.412 49.5083 111.527C53.1589 111.638 56.1772 109.574 58.5632 105.337C60.9492 101.099 62.1422 94.2688 62.1422 84.845V82.0531C56.8207 84.7096 50.841 86.0334 44.7959 85.8932C33.1336 86.0846 21.8464 82.0809 13.3127 74.726C4.5163 67.3399 0.122062 57.1217 0.130016 44.0711C0.130016 31.403 4.56004 20.9677 13.4201 12.7651C22.2801 4.5625 32.7427 0.464867 44.8079 0.472224C53.6122 0.472224 60.7145 2.50632 66.1148 6.57451C66.7471 2.62403 70.004 1.05708 75.9213 1.86263L101.941 5.00755ZM53.3378 76.6791C54.5943 76.7518 55.8493 76.5167 56.9762 75.9975C58.1031 75.4783 59.062 74.6933 59.7562 73.7218C61.525 71.1806 62.3809 68.1876 62.2018 65.1698V30.9616C62.2805 25.7571 60.7445 20.6408 57.7758 16.219C54.8171 11.8565 51.5801 9.67531 48.0647 9.67531C41.1453 9.67531 37.3755 15.7224 36.7551 27.8167C36.2382 35.8354 37.463 45.8918 40.4296 57.986C43.3961 70.0803 47.6989 76.3113 53.3378 76.6791Z" fill="#B15153"/>
</svg>
