<svg width="53" height="126" viewBox="0 0 53 126" fill="none" xmlns="http://www.w3.org/2000/svg">
<path d="M4.79481 125.629C1.82027 125.629 0.336958 124.477 0.344911 122.175V121.524C0.344911 120.1 1.53791 117.871 3.99549 114.903C6.23178 112.358 7.50935 109.209 7.63416 105.931V35.3082C7.53372 32.0699 6.25123 28.9585 3.99549 26.4803C1.60949 23.5781 0.344911 21.5146 0.344911 20.3118V19.6497C0.344911 18.2298 1.82822 16.8578 4.79481 15.5336L35.2163 1.74003C37.829 0.636536 39.9287 0.537236 41.5392 1.40899C42.3133 1.82002 42.9472 2.42359 43.369 3.15118C43.7907 3.87876 43.9834 4.70117 43.9252 5.52498V105.887C43.9252 108.856 45.2853 111.835 48.0172 114.859C50.7492 117.882 52.1092 120.1 52.1092 121.48V122.131C52.1092 124.437 50.6179 125.585 47.6593 125.585L4.79481 125.629Z" fill="#B15153"/>
</svg>
