<svg width="33" height="28" viewBox="0 0 33 28" fill="none" xmlns="http://www.w3.org/2000/svg">
<path d="M32.5759 3.60097C32.5078 4.00567 32.2779 4.37195 31.9316 4.62721C31.437 5.09681 31.0045 5.61915 30.6432 6.18317C30.2145 6.87422 29.996 7.65972 30.0109 8.45635V21.0803C30.055 22.0728 30.4776 23.0189 31.2039 23.7507C31.8064 24.2838 32.222 24.9719 32.3969 25.7259V25.9356C32.3969 26.6197 31.9674 26.9618 31.1204 26.9618H22.7694C22.5725 26.968 22.3762 26.938 22.1919 26.8736C22.0076 26.8092 21.839 26.7117 21.6957 26.5867C21.55 26.4644 21.4349 26.3141 21.3586 26.1464C21.2824 25.9786 21.2467 25.7974 21.2542 25.6156V25.13C20.2893 25.9428 19.1601 26.5709 17.9316 26.978C16.7031 27.3852 15.3996 27.5635 14.0962 27.5026C12.2995 27.5309 10.5145 27.2284 8.84533 26.6127C7.17611 25.997 5.65598 25.0804 4.37332 23.9162C1.67714 21.518 0.325047 18.2075 0.317094 13.9848C0.251469 12.1991 0.580544 10.4197 1.28415 8.75566C1.98775 7.09163 3.05108 5.57795 4.40908 4.30722C5.66175 3.08789 7.17278 2.12055 8.84773 1.46552C10.5227 0.810499 12.3256 0.481848 14.144 0.500172C16.7152 0.383047 19.2389 1.17167 21.2065 2.70715V2.44232C21.1919 2.1828 21.2555 1.9246 21.3903 1.69661C21.5252 1.46861 21.7259 1.27982 21.9701 1.15126C22.5943 0.841575 23.3162 0.743964 24.0101 0.875388L31.1681 1.84646C31.3707 1.85285 31.5695 1.89793 31.7522 1.97894C31.935 2.05996 32.0977 2.17516 32.2299 2.31718C32.3622 2.45921 32.4612 2.62503 32.5207 2.8042C32.5803 2.98338 32.599 3.17202 32.5759 3.35824V3.60097ZM16.4107 24.8652C16.9255 24.8821 17.4371 24.7824 17.9007 24.5747C18.3644 24.367 18.7662 24.0576 19.0711 23.6734C19.8268 22.7156 20.2056 21.5474 20.1447 20.363V9.94603C20.2198 8.21728 19.6653 6.51525 18.57 5.11275C18.1696 4.54379 17.6264 4.07297 16.9865 3.74053C16.3466 3.40808 15.6292 3.22391 14.8956 3.20373C12.0244 3.20373 10.4895 5.41071 10.2906 9.82467C10.2312 11.7956 10.3951 13.7669 10.7797 15.7063C11.1623 17.8648 11.869 19.9633 12.8794 21.941C13.8338 23.839 15.0268 24.8211 16.4107 24.8652Z" fill="#CC8343"/>
</svg>
