<svg width="23" height="34" viewBox="0 0 23 34" fill="none" xmlns="http://www.w3.org/2000/svg">
<path d="M13.0652 33.5026C11.7699 33.5646 10.4756 33.3647 9.27234 32.9169C8.06909 32.469 6.98583 31.7839 6.09804 30.9093C4.40398 29.1879 3.55695 26.7234 3.55695 23.5159V10.7265H1.33798C1.16072 10.7327 0.983991 10.705 0.81885 10.6451C0.65371 10.5851 0.503718 10.4944 0.378284 10.3783C0.252849 10.2623 0.154679 10.1235 0.0899 9.97079C0.0251213 9.81804 -0.00486617 9.65461 0.00183032 9.49064V8.29886C-0.021581 8.13142 -0.0031568 7.96121 0.0557134 7.8014C0.114584 7.64159 0.212334 7.4964 0.341403 7.37702C0.470472 7.25763 0.627433 7.16725 0.80021 7.1128C0.972987 7.05834 1.15696 7.0413 1.33798 7.06296H2.44747C4.1303 7.09763 5.76998 6.56859 7.06437 5.57327C8.36317 4.55546 9.24709 3.15774 9.56968 1.61172C9.76056 0.673753 10.2855 0.210266 11.1444 0.210266H12.4448C13.4947 0.210266 14.0196 0.673753 14.0196 1.61172V7.06296H19.9846C20.1635 7.05515 20.3422 7.08263 20.5088 7.14351C20.6754 7.20438 20.8261 7.29728 20.9509 7.41608C21.0761 7.53151 21.1744 7.66928 21.2401 7.82107C21.3057 7.97285 21.3372 8.13544 21.3327 8.29886V9.54581C21.3368 9.71082 21.3051 9.87493 21.2395 10.0284C21.174 10.182 21.0758 10.3218 20.9509 10.4396C20.8237 10.5548 20.6723 10.6445 20.5061 10.7034C20.3399 10.7622 20.1624 10.7889 19.9846 10.7817H14.0196V23.7367C13.9754 24.5101 14.248 25.2706 14.7831 25.8664C15.0111 26.1164 15.2964 26.3164 15.6183 26.4519C15.9402 26.5874 16.2906 26.655 16.6442 26.6499C17.4225 26.6747 18.1933 26.5015 18.8727 26.1494C19.5521 25.7972 20.1141 25.2795 20.4976 24.6526C20.7223 24.3603 21.0596 24.1589 21.44 24.0898C21.595 24.0602 21.755 24.0617 21.9094 24.094C22.0637 24.1264 22.2087 24.1889 22.3348 24.2774C22.4608 24.3633 22.5616 24.4769 22.6283 24.6079C22.6949 24.7389 22.7253 24.8832 22.7165 25.0278C22.7379 27.2556 21.8075 29.401 20.1277 30.9976C19.2071 31.851 18.1022 32.5151 16.8852 32.9467C15.6683 33.3783 14.3666 33.5678 13.0652 33.5026Z" fill="#CC8343"/>
</svg>
