<svg width="34" height="28" viewBox="0 0 34 28" fill="none" xmlns="http://www.w3.org/2000/svg">
<path d="M33.2002 3.60097C33.1322 4.00567 32.9023 4.37195 32.556 4.62721C32.0614 5.09681 31.6289 5.61915 31.2676 6.18317C30.8389 6.87422 30.6204 7.65972 30.6353 8.45635V21.0803C30.6794 22.0728 31.102 23.0189 31.8283 23.7507C32.4308 24.2838 32.8464 24.9719 33.0213 25.7259V25.9356C33.0213 26.6197 32.5918 26.9618 31.7448 26.9618H23.3938C23.1969 26.968 23.0007 26.938 22.8164 26.8736C22.6321 26.8092 22.4634 26.7117 22.3201 26.5867C22.1743 26.4644 22.0593 26.3141 21.9831 26.1464C21.9068 25.9786 21.8712 25.7974 21.8787 25.6156V25.13C20.9138 25.9428 19.7845 26.5709 18.556 26.978C17.3275 27.3852 16.024 27.5635 14.7207 27.5026C12.9239 27.5309 11.139 27.2284 9.46975 26.6127C7.80053 25.997 6.2804 25.0804 4.99774 23.9162C2.30156 21.518 0.949467 18.2075 0.941514 13.9848C0.875889 12.1991 1.20496 10.4197 1.90857 8.75566C2.61217 7.09163 3.6755 5.57795 5.0335 4.30722C6.28617 3.08789 7.79713 2.12055 9.47208 1.46552C11.147 0.810499 12.95 0.481848 14.7684 0.500172C17.3397 0.383047 19.8633 1.17167 21.831 2.70715V2.44232C21.8163 2.1828 21.8799 1.9246 22.0147 1.69661C22.1496 1.46861 22.3503 1.27982 22.5945 1.15126C23.2187 0.841575 23.9405 0.743964 24.6345 0.875388L31.7925 1.84646C31.995 1.85285 32.1939 1.89793 32.3767 1.97894C32.5594 2.05996 32.7221 2.17516 32.8543 2.31718C32.9866 2.45921 33.0856 2.62503 33.1451 2.8042C33.2046 2.98338 33.2234 3.17202 33.2002 3.35824V3.60097ZM17.0351 24.8652C17.5499 24.8821 18.0615 24.7824 18.5252 24.5747C18.9888 24.367 19.3906 24.0576 19.6955 23.6734C20.4512 22.7156 20.83 21.5474 20.7692 20.363V9.94603C20.8443 8.21728 20.2897 6.51525 19.1944 5.11275C18.7941 4.54379 18.2508 4.07297 17.6109 3.74053C16.971 3.40808 16.2536 3.22391 15.52 3.20373C12.6489 3.20373 11.1138 5.41071 10.915 9.82467C10.8769 11.7902 11.0609 13.754 11.4638 15.6842C11.8463 17.8427 12.5531 19.9413 13.5635 21.9189C14.494 23.839 15.6751 24.8211 17.0351 24.8652Z" fill="#CC8343"/>
</svg>
