<svg width="94" height="107" viewBox="0 0 94 107" fill="none" xmlns="http://www.w3.org/2000/svg">
<path d="M4.05623 106.954C1.34414 106.954 -0.00791845 105.902 3.48832e-05 103.798V103.191C3.48832e-05 101.889 1.10952 99.8586 3.3285 97.0999C5.37802 94.7766 6.55097 91.8976 6.6689 88.901V18.1895C6.55271 15.1925 5.37955 12.3131 3.3285 9.99055C1.10952 7.23183 3.48832e-05 5.19773 3.48832e-05 3.88826V3.29237C3.48832e-05 1.18838 1.35209 0.132716 4.05623 0.12536H79.8595C81.3706 -0.00837697 82.8811 0.385212 84.0946 1.22885C85.1116 2.29938 85.7378 3.63927 85.8841 5.05796L89.7852 25.2187C89.9217 25.8147 89.9043 26.4322 89.7343 27.0208C89.5643 27.6094 89.2466 28.1527 88.807 28.6064C88.3431 29.0429 87.7839 29.3829 87.1668 29.6036C86.5496 29.8243 85.8886 29.9208 85.228 29.8865H84.2497C81.6669 29.7634 79.2296 28.7426 77.4257 27.0284C75.1778 25.1716 73.1756 23.0751 71.4607 20.7827C69.666 18.4158 67.4986 16.3106 65.0305 14.5369C62.8065 12.7678 59.9932 11.7589 57.0612 11.6789H47.9586C42.5265 11.6789 39.8144 14.2868 39.8224 19.5026V46.8912H53.7208C55.8292 46.9156 57.8669 46.1886 59.4114 44.8608C60.9409 43.6324 62.1865 42.1311 63.0739 40.4468C63.8623 38.891 64.8175 37.4123 65.9252 36.0329C66.9989 34.6866 68.0845 34.0025 69.1702 34.0025H70.8046C73.0792 34.0025 74.2166 35.2568 74.2166 37.7654V67.1071C74.2166 69.6157 73.0792 70.87 70.8046 70.87H69.1702C68.51 70.8037 67.8748 70.5993 67.3126 70.2724C66.7504 69.9455 66.276 69.5046 65.9252 68.983C64.8042 67.687 63.8475 66.2764 63.0739 64.7788C62.1966 63.1454 60.9471 61.7073 59.4114 60.5634C57.8244 59.3174 55.8022 58.6469 53.7208 58.6765H39.8462V83.3505C39.7732 86.3283 40.6486 89.2601 42.3635 91.7812C44.0416 94.1868 46.7815 95.3895 50.5832 95.3895H62.2985C65.1677 95.3258 67.9025 94.2524 69.9456 92.3881C72.2539 90.4628 74.2045 88.2 75.7197 85.6899C77.1775 83.2281 79.0095 80.9724 81.1598 78.9917C82.0209 78.0892 83.0703 77.3571 84.245 76.8394C85.4198 76.3217 86.6956 76.0291 87.9957 75.9792H89.6182C90.2536 75.9508 90.8853 76.0839 91.4447 76.364C92.0041 76.6441 92.4699 77.0606 92.7916 77.5682C93.4868 78.5683 93.7508 79.7733 93.5312 80.9449L89.9522 101.713C89.812 103.202 89.1882 104.618 88.1627 105.773C86.9782 106.676 85.4557 107.108 83.9276 106.976L4.05623 106.954Z" fill="#B15153"/>
</svg>
