<svg width="90" height="93" viewBox="0 0 90 93" fill="none" xmlns="http://www.w3.org/2000/svg">
<path d="M45.0426 92.6287C32.1582 92.6287 21.5007 90.6939 13.0702 86.8244C4.63965 82.9548 0.420429 77.6433 0.412476 70.89C0.412476 66.476 1.87588 63.1877 4.80271 61.0248C8.07564 58.7754 12.0864 57.6374 16.16 57.8026C18.3268 57.7127 20.4912 58.0247 22.5257 58.7202C24.5602 59.4157 26.4237 60.4807 28.0065 61.8524C30.8089 64.2668 32.815 67.3657 33.7926 70.7907C34.6001 73.9467 35.9451 76.9637 37.7772 79.7289C38.472 80.9548 39.5165 81.9813 40.7972 82.6972C42.078 83.413 43.5462 83.7909 45.0426 83.7898C50.2202 83.7898 52.813 80.9648 52.821 75.315C52.8839 73.3171 52.4384 71.3335 51.5204 69.524C50.6024 67.7146 49.2376 66.13 47.536 64.8981C43.7749 62.1428 39.4783 60.0789 34.8782 58.8178C29.963 57.4054 25.0161 55.809 20.0373 54.0287C15.0155 52.2158 10.6114 49.1901 7.28409 45.267C3.76077 41.2209 2.0031 35.9389 2.01105 29.4209C2.01105 20.9461 5.98772 14.0346 13.9411 8.68636C21.8944 3.33812 32.3212 0.667662 45.2215 0.675018C57.8435 0.675018 68.1351 2.79373 76.0964 7.03112C84.0577 11.2685 88.0343 16.5836 88.0264 22.9765C88.0332 24.6548 87.6439 26.3143 86.8856 27.8391C86.1273 29.3639 85.0183 30.7171 83.6361 31.8044C80.7023 34.2639 76.8572 35.5838 72.8991 35.4901C69.4511 35.6252 66.0523 34.6975 63.2358 32.8528C60.8419 31.2346 58.9795 29.0345 57.8554 26.4966C56.7896 24.0322 55.8591 21.5457 55.0638 19.0371C54.3893 16.7845 53.4197 14.6167 52.1767 12.5817C51.7434 11.7779 51.0761 11.102 50.2498 10.6302C49.4235 10.1583 48.4712 9.90932 47.5001 9.91121C43.2451 9.91121 41.1176 12.9201 41.1176 18.9378C41.0279 21.0464 41.4264 23.1483 42.2865 25.1028C43.1465 27.0574 44.4482 28.8193 46.1044 30.2706C49.5718 33.2379 53.6779 35.4942 58.1536 36.8915C62.862 38.4364 67.5783 40.0659 72.3026 41.78C77.057 43.5294 81.2178 46.4253 84.3519 50.1665C87.6685 54.0361 89.3307 58.9797 89.3387 64.9974C89.3387 73.0896 85.4177 79.7106 77.5757 84.8602C69.7337 90.0098 58.8893 92.5993 45.0426 92.6287Z" fill="#B15153"/>
</svg>
